<?xml version="1.0" standalone="no"?>
<!DOCTYPE svg PUBLIC "-//W3C//DTD SVG 20010904//EN"
 "http://www.w3.org/TR/2001/REC-SVG-20010904/DTD/svg10.dtd">
<svg version="1.0" xmlns="http://www.w3.org/2000/svg"
 width="300.000000pt" height="300.000000pt" viewBox="0 0 300.000000 300.000000"
 preserveAspectRatio="xMidYMid meet">
<metadata>
Created by potrace 1.13, written by Peter Selinger 2001-2015
</metadata>
<g transform="translate(0.000000,300.000000) scale(0.100000,-0.100000)"
fill="#000000" stroke="none">
<path d="M1285 2984 c-739 -110 -1285 -740 -1285 -1484 0 -826 674 -1500 1500
-1500 826 0 1500 674 1500 1500 0 831 -680 1505 -1510 1499 -63 -1 -155 -7
-205 -15z m765 -750 c75 -22 162 -109 184 -184 24 -80 24 -1020 0 -1100 -22
-75 -109 -162 -184 -184 -80 -24 -1020 -24 -1100 0 -75 22 -162 109 -184 184
-24 80 -24 1020 0 1100 21 72 109 162 180 184 75 23 1026 23 1104 0z"/>
<path d="M1820 1950 l0 -130 130 0 130 0 0 130 0 130 -130 0 -130 0 0 -130z"/>
<path d="M1382 1734 c-93 -46 -142 -127 -142 -234 0 -152 108 -260 260 -260
152 0 259 108 260 261 0 151 -108 258 -261 259 -50 0 -77 -6 -117 -26z"/>
<path d="M900 1323 c0 -308 1 -330 20 -360 39 -64 27 -63 582 -63 481 0 504 1
535 20 62 37 63 45 63 405 l0 325 -109 0 -108 0 13 -52 c26 -99 10 -215 -41
-303 -34 -57 -119 -136 -178 -164 -307 -148 -659 139 -573 467 l13 52 -108 0
-109 0 0 -327z"/>
</g>
</svg>
