<?xml version="1.0" standalone="no"?>
<!DOCTYPE svg PUBLIC "-//W3C//DTD SVG 20010904//EN"
 "http://www.w3.org/TR/2001/REC-SVG-20010904/DTD/svg10.dtd">
<svg version="1.0" xmlns="http://www.w3.org/2000/svg"
 width="300.000000pt" height="300.000000pt" viewBox="0 0 300.000000 300.000000"
 preserveAspectRatio="xMidYMid meet">
<metadata>
Created by potrace 1.13, written by Peter Selinger 2001-2015
</metadata>
<g transform="translate(0.000000,300.000000) scale(0.100000,-0.100000)"
fill="#000000" stroke="none">
<path d="M1285 2984 c-326 -48 -610 -191 -844 -425 -590 -588 -586 -1543 9
-2128 587 -577 1528 -573 2110 9 585 585 585 1535 0 2120 -333 333 -814 493
-1275 424z m31 -755 c42 -19 66 -23 174 -24 95 -1 144 -7 205 -24 253 -71 439
-261 506 -518 16 -63 20 -104 18 -213 -2 -105 2 -148 16 -195 53 -182 -42
-383 -224 -473 -72 -35 -79 -37 -175 -37 -77 1 -111 5 -141 19 -33 16 -61 19
-160 17 -93 -2 -137 2 -198 18 -304 79 -512 325 -542 641 -3 36 -2 94 3 128 8
57 6 70 -16 125 -61 151 -29 316 84 437 47 50 136 103 200 120 66 16 194 6
250 -21z"/>
<path d="M1408 1989 c-136 -18 -235 -76 -277 -162 -30 -62 -29 -159 2 -218 46
-86 120 -125 356 -185 142 -35 177 -53 199 -98 44 -90 -84 -181 -229 -161 -66
9 -108 40 -145 105 -49 86 -76 110 -123 110 -28 0 -48 -8 -70 -26 -26 -22 -31
-33 -31 -70 0 -85 72 -184 171 -234 92 -47 254 -62 380 -36 180 39 282 146
282 297 0 163 -85 232 -374 304 -82 21 -164 47 -182 59 -43 29 -56 67 -34 100
28 42 74 60 157 60 95 1 126 -16 181 -101 48 -73 88 -92 144 -69 121 51 64
217 -100 292 -42 19 -193 47 -230 43 -5 -1 -40 -5 -77 -10z"/>
</g>
</svg>
