<?xml version="1.0" standalone="no"?>
<!DOCTYPE svg PUBLIC "-//W3C//DTD SVG 20010904//EN"
 "http://www.w3.org/TR/2001/REC-SVG-20010904/DTD/svg10.dtd">
<svg version="1.0" xmlns="http://www.w3.org/2000/svg"
 width="300.000000pt" height="300.000000pt" viewBox="0 0 300.000000 300.000000"
 preserveAspectRatio="xMidYMid meet">
<metadata>
Created by potrace 1.13, written by Peter Selinger 2001-2015
</metadata>
<g transform="translate(0.000000,300.000000) scale(0.100000,-0.100000)"
fill="#000000" stroke="none">
<path d="M1285 2984 c-739 -110 -1285 -740 -1285 -1484 0 -826 674 -1500 1500
-1500 826 0 1500 674 1500 1500 0 831 -680 1505 -1510 1499 -63 -1 -155 -7
-205 -15z m-105 -886 c34 -128 44 -158 50 -151 4 4 18 50 31 101 l24 92 42 0
c24 0 43 -1 43 -3 0 -1 -22 -70 -50 -152 -47 -141 -50 -155 -50 -252 l0 -103
-40 0 -40 0 0 93 c0 86 -4 105 -54 255 l-55 162 44 0 c44 0 44 -1 55 -42z
m393 -119 c27 -29 27 -31 27 -160 0 -72 -5 -139 -10 -150 -24 -44 -106 -62
-159 -35 -43 23 -51 54 -51 194 1 143 5 156 67 178 50 18 92 9 126 -27z m167
-123 c0 -97 4 -157 10 -161 6 -4 22 1 35 9 25 16 25 19 25 161 l0 145 35 0 35
0 0 -190 0 -190 -35 0 c-29 0 -35 4 -35 20 0 21 0 21 -28 0 -39 -29 -92 -24
-109 10 -13 27 -19 331 -6 343 3 4 21 7 40 7 l33 0 0 -154z m356 -361 c31 -9
63 -28 86 -52 60 -62 68 -93 68 -260 0 -135 -2 -153 -24 -199 -25 -54 -69 -94
-125 -113 -50 -16 -1148 -16 -1205 1 -53 16 -118 81 -134 134 -7 25 -12 100
-12 185 0 163 10 198 72 257 64 60 68 61 674 61 456 1 559 -2 600 -14z"/>
<path d="M1465 1938 c-3 -8 -4 -66 -3 -129 l3 -114 25 0 25 0 0 125 c0 122 -1
125 -23 128 -12 2 -24 -3 -27 -10z"/>
<path d="M1020 1390 c0 -28 3 -30 35 -30 l35 0 0 -200 0 -200 40 0 40 0 2 198
3 197 38 3 c34 3 37 6 37 33 l0 29 -115 0 -115 0 0 -30z"/>
<path d="M1530 1190 l0 -230 35 0 c19 0 35 5 35 11 0 8 4 8 14 0 8 -7 32 -11
53 -9 53 4 63 29 63 161 0 159 -29 209 -100 173 l-30 -14 0 69 0 69 -35 0 -35
0 0 -230z"/>
<path d="M1811 1296 c-41 -23 -50 -53 -51 -164 0 -74 4 -111 15 -133 28 -54
104 -65 154 -23 25 21 31 33 31 66 0 38 -1 39 -32 36 -28 -2 -34 -8 -36 -31
-8 -65 -62 -39 -62 29 l0 44 65 0 65 0 0 70 c0 62 -3 74 -25 95 -27 28 -84 33
-124 11z"/>
<path d="M1280 1147 c0 -157 4 -177 41 -190 10 -3 33 3 53 14 30 16 36 17 36
4 0 -10 11 -15 35 -15 l35 0 0 170 0 170 -35 0 -35 0 0 -128 c0 -132 -5 -152
-42 -152 -16 0 -18 12 -18 140 l0 140 -35 0 -35 0 0 -153z"/>
</g>
</svg>
